<?xml version="1.0" encoding="UTF-8" standalone="no"?>
<!-- Created with Inkscape (http://www.inkscape.org/) -->

<svg
   width="192"
   height="192"
   viewBox="0 0 50.799999 50.8"
   version="1.1"
   id="svg1"
   inkscape:version="1.3.2 (091e20e, 2023-11-25)"
   sodipodi:docname="favicon.svg"
   inkscape:export-filename="favicon.png"
   inkscape:export-xdpi="130"
   inkscape:export-ydpi="130"
   xmlns:inkscape="http://www.inkscape.org/namespaces/inkscape"
   xmlns:sodipodi="http://sodipodi.sourceforge.net/DTD/sodipodi-0.dtd"
   xmlns="http://www.w3.org/2000/svg"
   xmlns:svg="http://www.w3.org/2000/svg">
  <sodipodi:namedview
     id="namedview1"
     pagecolor="#ffffff"
     bordercolor="#000000"
     borderopacity="0.25"
     inkscape:showpageshadow="2"
     inkscape:pageopacity="0.0"
     inkscape:pagecheckerboard="0"
     inkscape:deskcolor="#d1d1d1"
     inkscape:document-units="px"
     inkscape:zoom="2.3786088"
     inkscape:cx="72.521383"
     inkscape:cy="115.19339"
     inkscape:window-width="1440"
     inkscape:window-height="849"
     inkscape:window-x="0"
     inkscape:window-y="37"
     inkscape:window-maximized="0"
     inkscape:current-layer="layer1" />
  <defs
     id="defs1" />
  <g
     inkscape:label="Layer 1"
     inkscape:groupmode="layer"
     id="layer1">
    <rect
       style="fill:#cdffdc;fill-opacity:1;stroke-width:0.560013;stroke:none"
       id="rect1"
       width="50.799999"
       height="50.799999"
       x="1.3877788e-17"
       y="0"
       rx="10.583333"
       ry="10.583333" />
    <ellipse
       style="fill:#878787;fill-opacity:1;stroke-width:0.437387"
       id="path1"
       cx="9.47756"
       cy="18.991507"
       rx="10.678511"
       ry="14.313248"
       transform="matrix(1,0,0.05233596,0.99862953,0,0)" />
    <ellipse
       style="fill:#6f6f6f;fill-opacity:1;stroke-width:0.384351"
       id="path1-2"
       cx="9.6351471"
       cy="19.139086"
       rx="9.2661972"
       ry="12.737136"
       transform="matrix(1,0,0.05103375,0.99869693,0,0)" />
    <ellipse
       style="fill:#878787;fill-opacity:1;stroke-width:0.437387"
       id="path1-9"
       cx="27.825777"
       cy="14.15004"
       rx="10.678511"
       ry="14.313248"
       transform="matrix(1,0,0.05233596,0.99862953,0,0)" />
    <ellipse
       style="fill:#6f6f6f;fill-opacity:1;stroke-width:0.384351"
       id="path1-2-5"
       cx="27.51173"
       cy="13.832914"
       rx="9.2661972"
       ry="12.737136"
       transform="matrix(1,0,0.05103375,0.99869693,0,0)" />
    <text
       xml:space="preserve"
       style="font-style:normal;font-variant:normal;font-weight:bold;font-stretch:normal;font-size:24.6944px;font-family:'RuneScape UF';-inkscape-font-specification:'RuneScape UF Bold';letter-spacing:-0.904875px;fill:#000000;fill-opacity:1;stroke-width:0.264583"
       x="4.6944771"
       y="27.029982"
       id="text2"
       transform="skewX(3)"><tspan
         sodipodi:role="line"
         id="tspan2"
         style="font-style:normal;font-variant:normal;font-weight:bold;font-stretch:normal;font-family:'RuneScape UF';-inkscape-font-specification:'RuneScape UF Bold';fill:#000000;fill-opacity:1;stroke-width:0.264583"
         x="4.6944771"
         y="27.029982">R</tspan></text>
    <text
       xml:space="preserve"
       style="font-weight:bold;font-size:24.6944px;font-family:'.SF NS Rounded';-inkscape-font-specification:'.SF NS Rounded Bold';letter-spacing:-0.904875px;fill:#000000;fill-opacity:1;stroke-width:0.264583"
       x="22.936937"
       y="21.690725"
       id="text3"
       transform="skewX(3)"><tspan
         sodipodi:role="line"
         id="tspan3"
         style="font-style:normal;font-variant:normal;font-weight:bold;font-stretch:normal;font-family:'RuneScape UF';-inkscape-font-specification:'RuneScape UF Bold';stroke-width:0.264583"
         x="22.936937"
         y="21.690725">S</tspan></text>
    <rect
       style="fill:#43acfc;fill-opacity:1;stroke-width:0.249336"
       id="rect3"
       width="30.227221"
       height="33.36599"
       x="30.017115"
       y="26.251173"
       transform="matrix(1,0,-0.42159298,0.90678518,0,0)" />
    <rect
       style="fill:#70bffd;fill-opacity:1;stroke-width:0.226253"
       id="rect3-1"
       width="27.570414"
       height="30.121704"
       x="31.527849"
       y="28.027668"
       transform="matrix(1,0,-0.4259542,0.90474473,0,0)" />
    <rect
       style="fill:#929292;fill-opacity:1;stroke-width:0.116375"
       id="rect3-1-6"
       width="24.240152"
       height="9.0639915"
       x="34.825932"
       y="30.007275"
       transform="matrix(1,0,-0.4682542,0.8835938,0,0)" />
    <rect
       style="fill:#bfbfbf;fill-opacity:1;stroke-width:0.0406685"
       id="rect3-1-6-4"
       width="5.0967689"
       height="5.2644639"
       x="35.632946"
       y="40.787613"
       transform="matrix(1,0,-0.47707625,0.87886191,0,0)" />
    <rect
       style="fill:#bfbfbf;fill-opacity:1;stroke-width:0.0406685"
       id="rect3-1-6-4-3"
       width="5.0967689"
       height="5.2644639"
       x="42.178047"
       y="40.926289"
       transform="matrix(1,0,-0.47707625,0.87886191,0,0)" />
    <rect
       style="fill:#bfbfbf;fill-opacity:1;stroke-width:0.0406685"
       id="rect3-1-6-4-6"
       width="5.0967689"
       height="5.2644639"
       x="48.371387"
       y="40.852966"
       transform="matrix(1,0,-0.47707625,0.87886191,0,0)" />
    <rect
       style="fill:#bfbfbf;fill-opacity:1;stroke-width:0.0406685"
       id="rect3-1-6-4-4"
       width="5.0967689"
       height="5.2644639"
       x="54.814583"
       y="40.76347"
       transform="matrix(1,0,-0.47707625,0.87886191,0,0)" />
    <rect
       style="fill:#bfbfbf;fill-opacity:1;stroke-width:0.0406685"
       id="rect3-1-6-4-5"
       width="5.0967689"
       height="5.2644639"
       x="35.677181"
       y="46.889736"
       transform="matrix(1,0,-0.47707625,0.87886191,0,0)" />
    <rect
       style="fill:#bfbfbf;fill-opacity:1;stroke-width:0.0406685"
       id="rect3-1-6-4-3-5"
       width="5.0967689"
       height="5.2644639"
       x="42.222282"
       y="47.028408"
       transform="matrix(1,0,-0.47707625,0.87886191,0,0)" />
    <rect
       style="fill:#bfbfbf;fill-opacity:1;stroke-width:0.0406685"
       id="rect3-1-6-4-6-4"
       width="5.0967689"
       height="5.2644639"
       x="48.415623"
       y="46.95509"
       transform="matrix(1,0,-0.47707625,0.87886191,0,0)" />
    <rect
       style="fill:#ababab;fill-opacity:1;stroke-width:0.0603654"
       id="rect3-1-6-4-4-1"
       width="5.0967689"
       height="11.598863"
       x="53.360596"
       y="46.134613"
       transform="matrix(1,0,-0.45047914,0.89278695,0,0)" />
    <rect
       style="fill:#bfbfbf;fill-opacity:1;stroke-width:0.0406685"
       id="rect3-1-6-4-52"
       width="5.0967689"
       height="5.2644639"
       x="35.568474"
       y="53.122334"
       transform="matrix(1,0,-0.47707625,0.87886191,0,0)" />
    <rect
       style="fill:#bfbfbf;fill-opacity:1;stroke-width:0.0406685"
       id="rect3-1-6-4-3-2"
       width="5.0967689"
       height="5.2644639"
       x="42.113575"
       y="53.261013"
       transform="matrix(1,0,-0.47707625,0.87886191,0,0)" />
    <rect
       style="fill:#bfbfbf;fill-opacity:1;stroke-width:0.0406685"
       id="rect3-1-6-4-6-6"
       width="5.0967689"
       height="5.2644639"
       x="48.306915"
       y="53.187687"
       transform="matrix(1,0,-0.47707625,0.87886191,0,0)" />
    <text
       xml:space="preserve"
       style="font-weight:bold;font-size:11.1338px;font-family:'.SF NS Rounded';-inkscape-font-specification:'.SF NS Rounded Bold';letter-spacing:-0.407973px;fill:#000000;fill-opacity:1;stroke-width:0.11929"
       x="38.906227"
       y="38.341702"
       id="text3-2"
       transform="matrix(1.1425679,0,-0.41586069,0.87522151,0,0)"><tspan
         sodipodi:role="line"
         id="tspan3-7"
         style="font-style:normal;font-variant:normal;font-weight:bold;font-stretch:normal;font-family:'RuneScape UF';-inkscape-font-specification:'RuneScape UF Bold';stroke-width:0.11929"
         x="38.906227"
         y="38.341702">73</tspan></text>
  </g>
</svg>
