<?xml version="1.0" standalone="no"?>
<!DOCTYPE svg PUBLIC "-//W3C//DTD SVG 20010904//EN"
 "http://www.w3.org/TR/2001/REC-SVG-20010904/DTD/svg10.dtd">
<svg version="1.0" xmlns="http://www.w3.org/2000/svg"
 width="260.000000pt" height="260.000000pt" viewBox="0 0 260.000000 260.000000"
 preserveAspectRatio="xMidYMid meet">
<metadata>
Created by potrace 1.14, written by Peter Selinger 2001-2017
</metadata>
<g transform="translate(0.000000,260.000000) scale(0.100000,-0.100000)"
fill="#000000" stroke="none">
<path d="M1279 2582 c-160 -65 -286 -228 -339 -440 l-11 -43 -28 38 c-40 55
-129 134 -187 165 -238 129 -495 34 -634 -233 -63 -121 -80 -204 -80 -389 0
-126 4 -173 21 -241 83 -330 324 -554 578 -536 42 2 94 12 115 21 22 9 41 14
44 12 2 -3 -78 -182 -178 -398 -101 -216 -198 -426 -216 -465 l-33 -73 40 0
c22 0 38 3 36 8 -2 4 131 295 297 647 l301 640 698 3 c383 1 697 -1 697 -4 0
-3 -135 -294 -300 -645 -165 -351 -300 -641 -300 -644 0 -4 17 -5 37 -3 l38 3
317 680 c174 374 317 683 317 688 1 4 -138 7 -308 7 l-310 0 38 83 c59 127 76
209 75 367 0 163 -23 269 -89 406 -74 153 -177 264 -305 327 -59 29 -74 32
-175 35 -88 2 -119 -2 -156 -16z m-199 -1192 c0 -5 -4 -10 -10 -10 -5 0 -10 5
-10 10 0 6 5 10 10 10 6 0 10 -4 10 -10z"/>
<path d="M967 1073 c-52 -98 -102 -193 -111 -211 l-17 -32 628 2 628 3 103
195 c57 107 106 201 109 208 4 9 -124 12 -620 12 l-625 0 -95 -177z"/>
<path d="M1542 255 c-67 -135 -122 -247 -122 -250 0 -3 60 -5 133 -5 l132 0
123 243 c67 133 122 245 122 250 0 4 -60 7 -133 7 l-132 0 -123 -245z"/>
</g>
</svg>
